# Blender v2.93.5 OBJ File: 'casa.blend'
# www.blender.org
mtllib arbol.mtl
o arbol
v 4.289898 4.531787 -5.058077
v 4.069162 4.531787 -4.837341
v 4.822818 5.597629 -4.837341
v 4.289898 4.531787 -4.616606
v 4.896357 5.687272 -4.847496
v 4.881999 5.715989 -4.861855
v 4.871844 5.666964 -4.837341
v 4.289898 4.531787 -4.269753
v 4.636751 4.531787 -4.269753
v 5.176273 4.531787 -4.269753
v 5.474100 4.531787 -4.269753
v 4.965692 5.548608 -4.778161
v 4.906512 5.597629 -4.921035
v 4.289898 4.531787 -5.453955
v 5.474100 4.531787 -5.453955
v 4.685777 4.531787 -5.453955
v 5.474100 4.531787 -4.567580
v 5.743861 4.531787 -4.837341
v 5.127247 4.531787 -5.453955
v 4.906512 5.666964 -4.872009
v 5.474100 4.531787 -5.107103
v 4.526738 4.531787 -4.959966
v 3.934637 3.347584 -5.205214
v 4.445976 4.531787 -4.879203
v 3.608626 3.347584 -4.879203
v 4.906512 5.715989 -4.837341
v 5.249871 3.347584 -5.750006
v 5.355680 3.347584 -5.453955
v 5.127247 3.347584 -5.453955
v 4.526738 4.531787 -4.798440
v 3.934637 3.347584 -4.553192
v 4.526738 4.531787 -5.157905
v 4.906512 4.531787 -3.999992
v 4.526738 4.531787 -4.565804
v 5.283325 4.531787 -4.879203
v 4.864650 4.531787 -4.460528
v 4.906512 4.531787 -5.674691
v 3.934637 3.347584 -5.750006
v 4.759375 4.531787 -4.565804
v 3.934637 3.347584 -3.973702
v 4.969926 4.531787 -4.565804
v 5.118839 4.531787 -4.565804
v 5.372496 2.163382 -6.046057
v 4.822789 3.347584 -5.758414
v 4.514126 3.347584 -3.973702
v 4.864650 3.347584 -3.623179
v 5.118839 4.531787 -5.157905
v 5.215174 3.347584 -3.973702
v 4.518330 3.347584 -5.453955
v 4.479429 3.347584 -5.750006
v 4.864650 3.347584 -6.135227
v 5.118839 4.531787 -4.714717
v 5.118839 4.531787 -5.043689
v 5.004623 4.531787 -5.157905
v 4.724678 4.531787 -5.157905
v 4.864650 4.531787 -5.297878
v 3.579376 2.163382 -3.677652
v 4.391502 2.163382 -3.677652
v 4.171477 3.347584 -4.269753
v 5.710941 3.347584 -3.973702
v 5.710941 3.347584 -5.750006
v 5.710941 3.347584 -4.469469
v 6.120675 3.347584 -4.879203
v 5.710941 3.347584 -5.288937
v 4.171477 3.347584 -5.107103
v 3.579376 2.163382 -5.352351
v 3.985439 3.347584 -4.921065
v 3.148090 2.163382 -4.921065
v 4.636751 3.347584 -4.269753
v 4.273082 2.163382 -6.046057
v 3.579376 2.163382 -4.489778
v 3.579376 2.163382 -6.046057
v 5.947781 2.163382 -5.470771
v 5.947781 2.163382 -6.046057
v 5.947781 2.163382 -4.371358
v 5.947781 2.163382 -3.677652
v 5.254075 2.163382 -3.677652
v 4.171477 3.347584 -4.735026
v 5.008827 3.347584 -4.269753
v 5.355680 3.347584 -4.269753
v 6.497488 2.163382 -4.921065
v 5.660138 3.347584 -4.921065
v 5.355680 3.347584 -4.616606
v 4.171477 3.347584 -5.453955
v 5.355680 3.347584 -5.225523
v 4.822789 2.163382 -3.246366
v 4.822789 3.347584 -4.083715
v 4.822789 2.163382 -6.595763
vt 0.412397 0.604086
vt 0.376110 0.604086
vt 0.500005 0.791451
vt 0.412397 0.604086
vt 0.512094 0.807210
vt 0.509734 0.812258
vt 0.508064 0.803639
vt 0.412397 0.604086
vt 0.469417 0.604086
vt 0.558110 0.604086
vt 0.607070 0.604086
vt 0.523492 0.782834
vt 0.513763 0.791451
vt 0.412397 0.604086
vt 0.607070 0.604086
vt 0.477476 0.604086
vt 0.607070 0.604086
vt 0.651416 0.604086
vt 0.550050 0.604086
vt 0.513763 0.803639
vt 0.607070 0.604086
vt 0.451332 0.604086
vt 0.353995 0.395914
vt 0.438055 0.604086
vt 0.300402 0.395914
vt 0.513763 0.812258
vt 0.570209 0.395914
vt 0.587603 0.395914
vt 0.550050 0.395914
vt 0.451332 0.604086
vt 0.353995 0.395914
vt 0.451332 0.604086
vt 0.513763 0.604086
vt 0.451332 0.604086
vt 0.575708 0.604086
vt 0.506882 0.604086
vt 0.513763 0.604086
vt 0.353995 0.395914
vt 0.489575 0.604086
vt 0.353995 0.395914
vt 0.524188 0.604086
vt 0.548668 0.604086
vt 0.590367 0.187742
vt 0.500000 0.395914
vt 0.449259 0.395914
vt 0.506882 0.395914
vt 0.548668 0.604086
vt 0.564505 0.395914
vt 0.449950 0.395914
vt 0.443555 0.395914
vt 0.506882 0.395914
vt 0.548668 0.604086
vt 0.548668 0.604086
vt 0.529892 0.604086
vt 0.483871 0.604086
vt 0.506882 0.604086
vt 0.295594 0.187742
vt 0.429100 0.187742
vt 0.392930 0.395914
vt 0.646005 0.395914
vt 0.646005 0.395914
vt 0.646005 0.395914
vt 0.713361 0.395914
vt 0.646005 0.395914
vt 0.392930 0.395914
vt 0.295594 0.187742
vt 0.362347 0.395914
vt 0.224694 0.187742
vt 0.469417 0.395914
vt 0.409633 0.187742
vt 0.295594 0.187742
vt 0.295594 0.187742
vt 0.684939 0.187742
vt 0.684939 0.187742
vt 0.684939 0.187742
vt 0.684939 0.187742
vt 0.570900 0.187742
vt 0.392930 0.395914
vt 0.530583 0.395914
vt 0.587603 0.395914
vt 0.775306 0.187742
vt 0.637653 0.395914
vt 0.587603 0.395914
vt 0.392930 0.395914
vt 0.587603 0.395914
vt 0.500000 0.187742
vt 0.500000 0.395914
vt 0.500000 0.187742
vn -0.6325 0.4472 -0.6325
vn -0.6325 0.4472 0.6325
vn 0.0000 0.4472 0.8944
vn -0.0001 0.4472 0.8944
vn -0.0000 0.4472 -0.8944
vn 0.6325 0.4472 0.6325
vn 0.6325 0.4472 0.6324
vn 0.6325 0.4472 -0.6324
vn 0.6325 0.4472 -0.6325
vn -0.8944 0.4472 0.0000
vn -0.6324 0.4473 -0.6324
vn -0.6324 0.4473 -0.6325
vn -0.6325 0.4473 -0.6323
vn 0.0000 -1.0000 0.0000
vn -0.6324 0.4472 0.6325
vn 0.8944 0.4472 -0.0000
usemtl lambert2SG.001
s 1
f 1/1/1 2/2/1 3/3/1
f 2/2/2 4/4/2 3/3/2
f 5/5/3 6/6/3 7/7/4
f 8/8/3 7/7/4 6/6/3
f 7/7/4 8/8/3 9/9/3
f 10/10/3 11/11/3 12/12/3
f 6/6/5 13/13/5 14/14/5
f 15/15/5 13/13/5 6/6/5
f 16/16/5 14/14/5 13/13/5
f 17/17/6 18/18/6 12/12/7
f 15/15/5 19/19/5 13/13/5
f 20/20/8 18/18/9 21/21/9
f 1/1/10 3/3/10 14/14/10
f 6/6/10 14/14/10 3/3/10
f 6/6/10 3/3/10 8/8/10
f 22/22/1 23/23/1 24/24/1
f 25/25/1 24/24/1 23/23/1
f 4/4/10 8/8/10 3/3/10
f 26/26/11 20/20/12 5/5/11
f 26/26/11 5/5/11 7/7/13
f 27/27/14 28/28/14 29/29/14
f 30/30/2 24/24/2 31/31/2
f 25/25/2 31/31/2 24/24/2
f 16/16/14 32/32/14 14/14/14
f 26/26/15 7/7/15 33/33/2
f 9/9/2 33/33/2 7/7/15
f 8/8/14 4/4/14 34/34/14
f 8/8/14 34/34/14 9/9/14
f 33/33/6 10/10/6 12/12/7
f 18/18/6 26/26/7 12/12/7
f 33/33/6 12/12/7 26/26/7
f 18/18/9 20/20/8 26/26/8
f 2/2/14 1/1/14 24/24/14
f 22/22/14 24/24/14 1/1/14
f 1/1/14 14/14/14 32/32/14
f 22/22/14 1/1/14 32/32/14
f 17/17/14 35/35/14 18/18/14
f 21/21/14 18/18/14 35/35/14
f 15/15/16 6/6/16 20/20/16
f 5/5/16 20/20/16 6/6/16
f 2/2/14 24/24/14 4/4/14
f 30/30/14 4/4/14 24/24/14
f 34/34/14 4/4/14 30/30/14
f 17/17/16 12/12/16 11/11/16
f 9/9/14 36/36/14 33/33/14
f 21/21/16 15/15/16 20/20/16
f 13/13/1 37/37/1 16/16/1
f 23/23/10 22/22/10 32/32/10
f 38/38/10 23/23/10 32/32/10
f 37/37/9 13/13/9 19/19/9
f 9/9/14 34/34/14 39/39/14
f 9/9/14 39/39/14 36/36/14
f 10/10/14 33/33/14 36/36/14
f 30/30/10 31/31/10 34/34/10
f 40/40/10 34/34/10 31/31/10
f 10/10/14 36/36/14 41/41/14
f 10/10/14 41/41/14 42/42/14
f 42/42/14 17/17/14 10/10/14
f 29/29/9 43/43/9 44/44/9
f 45/45/2 46/46/2 36/36/2
f 45/45/2 36/36/2 39/39/2
f 21/21/14 47/47/14 15/15/14
f 41/41/6 36/36/6 48/48/6
f 46/46/6 48/48/6 36/36/6
f 49/49/14 50/50/14 44/44/14
f 50/50/14 51/51/14 44/44/14
f 52/52/14 17/17/14 42/42/14
f 11/11/14 10/10/14 17/17/14
f 17/17/14 52/52/14 35/35/14
f 35/35/14 53/53/14 21/21/14
f 51/51/14 27/27/14 44/44/14
f 29/29/14 44/44/14 27/27/14
f 47/47/14 21/21/14 53/53/14
f 54/54/14 19/19/14 47/47/14
f 19/19/14 15/15/14 47/47/14
f 39/39/3 34/34/3 45/45/3
f 45/45/3 34/34/3 40/40/3
f 32/32/14 16/16/14 55/55/14
f 56/56/14 55/55/14 16/16/14
f 37/37/14 56/56/14 16/16/14
f 50/50/5 38/38/5 32/32/5
f 50/50/5 32/32/5 55/55/5
f 57/57/3 58/58/3 59/59/3
f 48/48/3 60/60/3 42/42/3
f 48/48/3 42/42/3 41/41/3
f 37/37/14 19/19/14 56/56/14
f 54/54/14 56/56/14 19/19/14
f 54/54/5 47/47/5 27/27/5
f 61/61/5 27/27/5 47/47/5
f 62/62/6 63/63/6 35/35/6
f 62/62/6 35/35/6 52/52/6
f 53/53/9 35/35/9 64/64/9
f 63/63/9 64/64/9 35/35/9
f 65/65/1 66/66/1 67/67/1
f 68/68/1 67/67/1 66/66/1
f 69/69/3 59/59/3 58/58/3
f 66/66/14 70/70/14 71/71/14
f 66/66/14 72/72/14 70/70/14
f 70/70/14 43/43/14 71/71/14
f 43/43/14 73/73/14 71/71/14
f 74/74/14 73/73/14 43/43/14
f 73/73/14 75/75/14 71/71/14
f 58/58/14 71/71/14 75/75/14
f 76/76/14 77/77/14 75/75/14
f 77/77/14 58/58/14 75/75/14
f 57/57/14 71/71/14 58/58/14
f 68/68/2 71/71/2 67/67/2
f 78/78/2 67/67/2 71/71/2
f 79/79/3 77/77/3 80/80/3
f 76/76/3 80/80/3 77/77/3
f 68/68/14 66/66/14 71/71/14
f 75/75/6 81/81/6 82/82/6
f 75/75/6 82/82/6 83/83/6
f 38/38/14 84/84/14 23/23/14
f 62/62/14 82/82/14 63/63/14
f 72/72/10 66/66/10 84/84/10
f 73/73/9 85/85/9 82/82/9
f 81/81/9 73/73/9 82/82/9
f 40/40/14 31/31/14 59/59/14
f 75/75/14 73/73/14 81/81/14
f 25/25/14 23/23/14 67/67/14
f 65/65/14 67/67/14 23/23/14
f 65/65/14 23/23/14 84/84/14
f 52/52/16 42/42/16 62/62/16
f 60/60/16 62/62/16 42/42/16
f 65/65/10 84/84/10 66/66/10
f 25/25/14 67/67/14 31/31/14
f 78/78/14 31/31/14 67/67/14
f 59/59/14 31/31/14 78/78/14
f 64/64/16 61/61/16 47/47/16
f 64/64/16 47/47/16 53/53/16
f 57/57/10 59/59/10 71/71/10
f 71/71/10 59/59/10 78/78/10
f 45/45/14 40/40/14 59/59/14
f 50/50/1 55/55/1 56/56/1
f 51/51/1 50/50/1 56/56/1
f 76/76/16 75/75/16 80/80/16
f 83/83/16 80/80/16 75/75/16
f 58/58/2 86/86/2 87/87/2
f 58/58/2 87/87/2 69/69/2
f 62/62/14 60/60/14 80/80/14
f 48/48/14 80/80/14 60/60/14
f 27/27/9 51/51/9 56/56/9
f 27/27/9 56/56/9 54/54/9
f 85/85/16 73/73/16 28/28/16
f 74/74/16 28/28/16 73/73/16
f 77/77/6 79/79/6 87/87/6
f 86/86/6 77/77/6 87/87/6
f 45/45/14 59/59/14 69/69/14
f 45/45/14 69/69/14 87/87/14
f 45/45/14 87/87/14 46/46/14
f 88/88/1 70/70/1 44/44/1
f 49/49/1 44/44/1 70/70/1
f 58/58/14 77/77/14 86/86/14
f 88/88/9 44/44/9 43/43/9
f 79/79/14 48/48/14 87/87/14
f 80/80/14 48/48/14 79/79/14
f 46/46/14 87/87/14 48/48/14
f 43/43/14 70/70/14 88/88/14
f 70/70/5 72/72/5 84/84/5
f 49/49/5 70/70/5 84/84/5
f 28/28/14 27/27/14 61/61/14
f 64/64/14 28/28/14 61/61/14
f 62/62/14 80/80/14 83/83/14
f 62/62/14 83/83/14 82/82/14
f 74/74/5 43/43/5 28/28/5
f 29/29/5 28/28/5 43/43/5
f 85/85/14 64/64/14 82/82/14
f 28/28/14 64/64/14 85/85/14
f 63/63/14 82/82/14 64/64/14
f 38/38/14 50/50/14 84/84/14
f 49/49/14 84/84/14 50/50/14
