# Blender v2.93.5 OBJ File: ''
# www.blender.org
mtllib buro.mtl
o Cubo.001
v -0.144060 0.130627 -0.000000
v -0.144060 0.128742 0.019146
v -0.144060 0.410267 0.171907
v 0.144060 0.410267 -0.171907
v 0.019146 0.127776 -0.171907
v 0.000000 0.129662 -0.171907
v 0.144060 0.410267 0.171907
v 0.144060 0.128572 0.019146
v 0.144060 0.130458 -0.000000
v -0.019146 0.127574 0.171907
v 0.000000 0.129460 0.171907
v 0.144060 0.057578 0.171907
v 0.094110 0.057578 0.094408
v 0.144060 0.057578 0.094399
v 0.094157 0.057578 -0.171907
v 0.144060 0.057578 -0.094399
v 0.094144 0.057578 -0.094408
v -0.144060 0.057578 -0.094450
v -0.094157 0.057578 -0.171907
v -0.094144 0.057578 -0.094441
v -0.144060 0.057578 0.171907
v -0.094110 0.057578 0.094441
v -0.094096 0.057578 0.171907
v -0.144060 0.410267 -0.171907
v -0.090669 0.068877 0.171907
v -0.090669 0.068924 0.090999
v -0.090669 0.069079 -0.171907
v -0.090669 0.069032 -0.090966
v -0.090087 0.070013 0.090669
v -0.081600 0.085844 0.171907
v -0.081600 0.086046 -0.171907
v -0.081600 0.085993 -0.082124
v -0.090144 0.070013 -0.090669
v -0.080715 0.086974 0.081600
v -0.069395 0.100715 0.171907
v -0.081600 0.085896 0.082176
v -0.069395 0.100918 -0.171907
v -0.080794 0.086974 -0.081600
v -0.068100 0.101838 0.069395
v -0.054523 0.112920 0.171907
v -0.069395 0.100775 0.070268
v -0.054523 0.113123 -0.171907
v -0.068199 0.101838 -0.069395
v -0.069395 0.100858 -0.070200
v -0.052568 0.114034 0.054523
v -0.037556 0.121989 0.171907
v -0.054523 0.112988 0.055799
v -0.037556 0.122192 -0.171907
v -0.052688 0.114034 -0.054523
v -0.054523 0.113054 -0.055719
v -0.034180 0.123092 0.037556
v -0.037556 0.122067 0.039478
v -0.019146 0.127776 -0.171907
v -0.034326 0.123092 -0.037556
v -0.037556 0.122114 -0.039391
v -0.009010 0.128662 0.019146
v -0.019146 0.127662 0.022463
v -0.009237 0.128662 -0.019146
v -0.019146 0.127688 -0.022376
v 0.009118 0.128651 0.019146
v 0.019146 0.127662 0.022389
v 0.009348 0.128651 -0.019146
v 0.019146 0.127688 -0.022302
v 0.019146 0.127574 0.171907
v 0.034313 0.123052 0.037556
v 0.037556 0.122067 0.039395
v 0.034460 0.123052 -0.037556
v 0.037556 0.122114 -0.039308
v 0.037556 0.121989 0.171907
v 0.052684 0.113972 0.054523
v 0.054523 0.112989 0.055720
v 0.052805 0.113972 -0.054523
v 0.037556 0.122192 -0.171907
v 0.054523 0.113054 -0.055640
v 0.054523 0.112920 0.171907
v 0.068198 0.101758 0.069395
v 0.069395 0.100775 0.070201
v 0.068297 0.101758 -0.069395
v 0.054523 0.113123 -0.171907
v 0.069395 0.100858 -0.070133
v 0.069395 0.100715 0.171907
v 0.080793 0.086879 0.081600
v 0.081600 0.085897 0.082124
v 0.080872 0.086879 -0.081600
v 0.069395 0.100918 -0.171907
v 0.081600 0.085993 -0.082073
v 0.081600 0.086046 -0.171907
v 0.090669 0.069032 -0.090934
v 0.090201 0.069907 -0.090669
v 0.090144 0.069907 0.090669
v 0.090669 0.068924 0.090966
v 0.081600 0.085844 0.171907
v 0.090669 0.069079 -0.171907
v 0.090669 0.068877 0.171907
v 0.094096 0.057578 0.171907
v 0.144060 0.069875 0.090669
v -0.144060 0.070045 0.090669
v -0.144060 0.087012 0.081600
v 0.144060 0.086842 0.081600
v -0.144060 0.101883 0.069395
v 0.144060 0.101713 0.069395
v -0.144060 0.114088 0.054523
v 0.144060 0.113918 0.054523
v -0.144060 0.123157 0.037556
v 0.144060 0.122987 0.037556
v 0.000000 0.129555 0.010028
v 0.000000 0.129567 -0.009909
v -0.144060 0.128742 -0.019146
v 0.144060 0.128572 -0.019146
v -0.144060 0.123157 -0.037556
v 0.144060 0.122987 -0.037556
v -0.144060 0.114088 -0.054523
v 0.144060 0.113918 -0.054523
v -0.144060 0.101883 -0.069395
v 0.144060 0.101713 -0.069395
v -0.144060 0.087012 -0.081600
v 0.144060 0.069875 -0.090669
v 0.144060 0.086842 -0.081600
v -0.144060 0.070045 -0.090669
v -0.144060 0.057578 0.094450
v -0.144060 0.057578 -0.171907
v 0.144060 0.057578 -0.171907
vt 0.389576 0.270718
vt 0.388239 0.256797
vt 0.587795 0.145718
vt 0.544390 0.304675
vt 0.344149 0.196288
vt 0.345486 0.179675
vt 0.131865 0.967144
vt 0.338411 0.228248
vt 0.368073 0.233634
vt 0.525787 0.293110
vt 0.325403 0.184723
vt 0.326740 0.168110
vt 0.511417 0.203979
vt 0.468076 0.174901
vt 0.511417 0.174898
vt 0.468117 0.074981
vt 0.511417 0.104062
vt 0.468105 0.104058
vt 0.261417 0.104042
vt 0.304718 0.074981
vt 0.304730 0.104046
vt 0.261417 0.203979
vt 0.304759 0.174914
vt 0.304771 0.203979
vt 0.366536 0.041142
vt 0.135138 0.291142
vt 0.135138 0.041142
vt 0.573917 0.299174
vt 0.593173 0.256277
vt 0.573917 0.254370
vt 0.593362 0.151681
vt 0.573917 0.108784
vt 0.573917 0.153606
vt 0.571913 0.254187
vt 0.542667 0.299174
vt 0.542667 0.108784
vt 0.542667 0.158502
vt 0.572110 0.153770
vt 0.540403 0.249165
vt 0.511417 0.299174
vt 0.542667 0.249484
vt 0.511417 0.108784
vt 0.540605 0.158793
vt 0.508696 0.242407
vt 0.480167 0.299174
vt 0.511417 0.242890
vt 0.480167 0.108784
vt 0.508905 0.165551
vt 0.511417 0.165105
vt 0.476567 0.234171
vt 0.448917 0.299174
vt 0.480167 0.234878
vt 0.448917 0.108784
vt 0.476788 0.173786
vt 0.480167 0.173124
vt 0.443187 0.224776
vt 0.417667 0.299174
vt 0.448917 0.225840
vt 0.417667 0.108784
vt 0.443434 0.183182
vt 0.448917 0.182166
vt 0.401123 0.214581
vt 0.386417 0.299174
vt 0.417667 0.216418
vt 0.386417 0.108784
vt 0.401494 0.193377
vt 0.417667 0.191588
vt 0.371535 0.214581
vt 0.355167 0.216377
vt 0.371159 0.193377
vt 0.355167 0.191629
vt 0.355167 0.299174
vt 0.329422 0.224776
vt 0.323917 0.225794
vt 0.329174 0.183182
vt 0.355167 0.108784
vt 0.323917 0.182212
vt 0.323917 0.299174
vt 0.296054 0.234172
vt 0.292667 0.234834
vt 0.295832 0.173786
vt 0.323917 0.108784
vt 0.292667 0.173168
vt 0.292667 0.299174
vt 0.263933 0.242407
vt 0.261417 0.242853
vt 0.263723 0.165551
vt 0.292667 0.108784
vt 0.261417 0.165142
vt 0.261417 0.299174
vt 0.232231 0.249165
vt 0.230167 0.249456
vt 0.232029 0.158792
vt 0.261417 0.108784
vt 0.230167 0.158530
vt 0.230167 0.108784
vt 0.198917 0.153623
vt 0.200529 0.153770
vt 0.200726 0.254187
vt 0.198917 0.254352
vt 0.230167 0.299174
vt 0.198917 0.108784
vt 0.179473 0.151700
vt 0.198917 0.299174
vt 0.179661 0.256258
vt 0.179739 0.299174
vt 0.594840 0.256093
vt 0.575584 0.254187
vt 0.573917 0.283753
vt 0.573917 0.124205
vt 0.575765 0.153770
vt 0.595028 0.151865
vt 0.542667 0.124205
vt 0.542667 0.159282
vt 0.544653 0.158792
vt 0.544476 0.249165
vt 0.542667 0.248719
vt 0.542667 0.283753
vt 0.513653 0.165551
vt 0.511417 0.124205
vt 0.511417 0.283753
vt 0.513481 0.242407
vt 0.482847 0.173786
vt 0.511417 0.166268
vt 0.480167 0.124205
vt 0.480167 0.283753
vt 0.511417 0.241744
vt 0.482683 0.234172
vt 0.452457 0.183182
vt 0.480167 0.174869
vt 0.448917 0.124205
vt 0.448917 0.283753
vt 0.480167 0.233153
vt 0.452304 0.224776
vt 0.423298 0.193377
vt 0.448917 0.185051
vt 0.417667 0.124205
vt 0.417667 0.283753
vt 0.448917 0.222980
vt 0.423172 0.214581
vt 0.386417 0.283753
vt 0.417667 0.209028
vt 0.402785 0.203979
vt 0.386417 0.124205
vt 0.355167 0.198864
vt 0.370244 0.203979
vt 0.355167 0.124205
vt 0.323917 0.184971
vt 0.349684 0.193377
vt 0.355167 0.283753
vt 0.355167 0.209156
vt 0.349810 0.214581
vt 0.323917 0.124205
vt 0.292667 0.174802
vt 0.320538 0.183182
vt 0.320690 0.224776
vt 0.292667 0.233220
vt 0.323917 0.283753
vt 0.292667 0.124205
vt 0.261417 0.166213
vt 0.290155 0.173786
vt 0.290320 0.234172
vt 0.261417 0.241799
vt 0.292667 0.283753
vt 0.259355 0.165551
vt 0.261417 0.124205
vt 0.230167 0.159238
vt 0.261417 0.283753
vt 0.259527 0.242407
vt 0.230167 0.248763
vt 0.228360 0.158793
vt 0.230167 0.124205
vt 0.198917 0.154061
vt 0.198917 0.253928
vt 0.198917 0.283753
vt 0.230167 0.283753
vt 0.197251 0.153770
vt 0.198917 0.124205
vt 0.177806 0.151846
vt 0.197432 0.254187
vt 0.177995 0.256112
vt 0.271741 0.034330
vt 0.429251 0.027240
vt 0.267568 0.112789
vt 0.337795 0.040305
vt 0.587795 0.040305
vt 0.369200 0.114846
vt 0.383837 0.384613
vt 0.375000 0.325541
vt 0.395864 0.391207
vt 0.235265 0.038269
vt 0.484523 0.038902
vt 0.344642 0.242418
vt 0.625000 0.959990
vt 0.375000 0.959990
vt 0.406405 0.885449
vt 0.343099 0.156328
vt 0.146869 0.039703
vt 0.317562 0.132833
vt 0.223106 0.037551
vt 0.597612 0.034718
vt 0.616341 0.093338
vt 0.297246 0.104900
vt 0.406405 0.400082
vt 0.625000 0.250000
vt 0.406405 0.175459
vt 0.415056 0.164646
vt 0.377852 0.231073
vt 0.369200 0.220259
vt 0.421485 0.152308
vt 0.425444 0.138922
vt 0.384280 0.243410
vt 0.426780 0.125000
vt 0.170876 0.345178
vt 0.134475 0.331661
vt 0.134475 0.134614
vt 0.254085 0.040010
vt 0.504085 0.040010
vt 0.284662 0.104797
vt 0.260066 0.040560
vt 0.509732 0.041072
vt 0.374617 0.242698
vt 0.281562 0.290820
vt 0.500984 0.226034
vt 0.290213 0.303724
vt 0.581595 0.959695
vt 0.331594 0.959695
vt 0.362172 0.898009
vt 0.131431 0.378763
vt 0.131431 0.241523
vt 0.180953 0.232109
vt 0.255321 0.207199
vt 0.395036 0.804197
vt 0.383009 0.796327
vt 0.375000 0.750000
vt 0.405577 0.814787
vt 0.320505 0.173675
vt 0.296641 0.318446
vt 0.300600 0.334421
vt 0.306365 0.228324
vt 0.315016 0.215420
vt 0.321445 0.200698
vt 0.301937 0.351034
vt 0.261417 0.174917
vt 0.630069 0.825436
vt 0.630069 0.957831
vt 0.380069 0.957831
vt 0.091942 0.662428
vt 0.093750 0.663293
vt 0.093750 0.595396
vt 0.060834 0.652695
vt 0.062500 0.653259
vt 0.062500 0.595396
vt 0.177757 0.124205
vt 0.144422 0.125806
vt 0.136270 0.122779
vt 0.136270 0.079478
vt 0.294390 0.039173
vt 0.544390 0.039173
vt 0.325111 0.103960
vt 0.182109 0.038919
vt 0.522672 0.037072
vt 0.339060 0.318254
vt 0.325111 0.119462
vt 0.544390 0.054675
vt 0.333762 0.132366
vt 0.544390 0.958858
vt 0.294390 0.961958
vt 0.325111 0.897172
vt 0.136270 0.329478
vt 0.136270 0.286178
vt 0.144422 0.283151
vt 0.294390 0.304675
vt 0.302542 0.258348
vt 0.314569 0.250479
vt 0.314569 0.108872
vt 0.302542 0.101003
vt 0.294390 0.054675
vt 0.325111 0.239889
vt 0.340190 0.147088
vt 0.344149 0.163062
vt 0.333762 0.226985
vt 0.340190 0.212263
vt 0.509475 0.077434
vt 0.506122 0.032978
vt 0.632505 0.037925
vt 0.630869 0.969134
vt 0.476060 0.160151
vt 0.452837 0.191700
vt 0.133501 0.029734
vt 0.260857 0.156844
vt 0.222679 0.034681
vt 0.228298 0.073113
vt 0.242132 0.117680
vt 0.495184 0.121569
vt 0.426407 0.215002
vt 0.397785 0.229161
vt 0.283753 0.189102
vt 0.309939 0.213212
vt 0.468064 0.203979
vt 0.511417 0.074981
vt 0.261417 0.074981
vt 0.593096 0.299174
vt 0.593439 0.108784
vt 0.386417 0.209532
vt 0.386417 0.198492
vt 0.179395 0.108784
vt 0.594790 0.283753
vt 0.573917 0.253897
vt 0.595078 0.124205
vt 0.573917 0.154093
vt 0.417667 0.198990
vt 0.323917 0.223061
vt 0.228537 0.249165
vt 0.178045 0.283753
vn -1.0000 -0.0000 0.0000
vn -0.0000 -0.0000 -1.0000
vn 1.0000 -0.0000 0.0000
vn -0.0000 0.0000 1.0000
vn 0.0000 -1.0000 0.0000
vn 0.0000 1.0000 -0.0000
vn 0.9570 -0.2902 -0.0002
vn 0.9569 -0.2903 -0.0002
vn 0.8819 -0.4714 -0.0003
vn 0.8818 -0.4716 -0.0003
vn 0.7729 -0.6345 -0.0003
vn 0.7730 -0.6344 -0.0004
vn 0.7728 -0.6346 -0.0003
vn 0.7729 -0.6345 -0.0004
vn 0.7728 -0.6346 -0.0004
vn 0.6343 -0.7730 -0.0004
vn 0.6344 -0.7730 -0.0005
vn 0.6343 -0.7731 -0.0004
vn 0.6345 -0.7729 -0.0005
vn 0.6343 -0.7731 -0.0005
vn 0.4714 -0.8819 -0.0005
vn 0.4715 -0.8819 -0.0005
vn 0.2903 -0.9569 -0.0006
vn 0.2902 -0.9570 -0.0006
vn 0.2901 -0.9570 -0.0006
vn 0.0980 -0.9952 -0.0006
vn 0.0981 -0.9952 -0.0006
vn -0.0980 -0.9952 -0.0006
vn -0.0981 -0.9952 -0.0006
vn -0.2903 -0.9569 -0.0006
vn -0.2902 -0.9570 -0.0006
vn -0.4714 -0.8819 -0.0005
vn -0.4713 -0.8820 -0.0005
vn -0.4712 -0.8820 -0.0005
vn -0.4715 -0.8819 -0.0005
vn -0.6344 -0.7730 -0.0005
vn -0.6347 -0.7728 -0.0005
vn -0.6345 -0.7729 -0.0005
vn -0.7730 -0.6344 -0.0004
vn -0.7728 -0.6346 -0.0003
vn -0.7729 -0.6345 -0.0004
vn -0.7728 -0.6347 -0.0005
vn -0.8819 -0.4714 -0.0003
vn -0.8818 -0.4715 -0.0003
vn -0.8819 -0.4715 -0.0003
vn -0.8820 -0.4713 -0.0003
vn -0.8820 -0.4712 -0.0003
vn -0.9570 -0.2902 -0.0002
vn -0.9569 -0.2903 -0.0002
vn -0.0002 -0.2903 -0.9569
vn -0.0002 -0.2904 -0.9569
vn -0.0002 -0.2902 -0.9570
vn -0.0002 -0.2901 -0.9570
vn -0.0003 -0.4714 -0.8819
vn -0.0003 -0.4712 -0.8820
vn -0.0003 -0.4711 -0.8821
vn -0.0004 -0.6344 -0.7730
vn -0.0004 -0.6343 -0.7730
vn -0.0005 -0.7730 -0.6344
vn -0.0005 -0.7731 -0.6343
vn -0.0005 -0.8820 -0.4713
vn -0.0005 -0.8819 -0.4714
vn -0.0006 -0.9570 -0.2903
vn -0.0006 -0.9569 -0.2903
vn -0.0006 -0.9569 -0.2905
vn -0.0006 -0.9952 -0.0980
vn -0.0006 -0.9952 -0.0981
vn -0.0006 -0.9952 0.0980
vn -0.0006 -0.9952 0.0981
vn -0.0006 -0.9569 0.2903
vn -0.0005 -0.8819 0.4714
vn -0.0005 -0.8820 0.4713
vn -0.0005 -0.7730 0.6344
vn -0.0005 -0.7729 0.6345
vn -0.0004 -0.6344 0.7730
vn -0.0003 -0.4715 0.8818
vn -0.0003 -0.4714 0.8819
vn -0.0002 -0.2899 0.9571
vn -0.0002 -0.2902 0.9570
vn -0.0002 -0.2903 0.9569
vn -0.0002 -0.2901 0.9570
vn 0.8818 -0.4717 -0.0004
vn -0.0004 -0.6343 -0.7731
vn -0.0005 -0.7729 -0.6345
vn -0.0006 -0.9570 -0.2902
vn -0.0006 -0.9570 -0.2901
vn -0.0005 -0.8821 0.4711
vn -0.0004 -0.6345 0.7730
vn -0.0003 -0.4712 0.8820
vn -0.0002 -0.2899 0.9570
usemtl Material.003
s 1
f 1/1/1 2/2/1 3/3/1
f 4/4/2 5/5/2 6/6/2
f 7/7/3 8/8/3 9/9/3
f 3/10/4 10/11/4 11/12/4
f 12/13/5 13/14/5 14/15/5
f 15/16/5 16/17/5 17/18/5
f 18/19/5 19/20/5 20/21/5
f 21/22/5 22/23/5 23/24/5
f 24/25/6 7/26/6 4/27/6
f 25/28/7 22/29/8 26/30/8
f 20/31/8 27/32/7 28/33/8
f 29/34/9 30/35/9 26/30/9
f 31/36/9 32/37/9 33/38/10
f 34/39/11 35/40/12 36/41/13
f 37/42/12 38/43/14 32/37/15
f 39/44/16 40/45/17 41/46/18
f 42/47/17 43/48/19 44/49/20
f 45/50/21 46/51/21 47/52/22
f 48/53/21 49/54/21 50/55/21
f 51/56/23 10/57/23 52/58/24
f 53/59/23 54/60/24 55/61/25
f 56/62/26 11/63/26 57/64/26
f 6/65/26 58/66/27 59/67/26
f 11/63/28 60/68/28 61/69/28
f 62/70/29 6/65/28 63/71/28
f 64/72/30 65/73/30 66/74/30
f 67/75/30 5/76/30 68/77/31
f 69/78/32 70/79/33 71/80/34
f 72/81/35 73/82/32 74/83/35
f 75/84/36 76/85/36 77/86/36
f 78/87/37 79/88/36 80/89/38
f 81/90/39 82/91/40 83/92/39
f 84/93/41 85/94/39 86/95/42
f 87/96/43 88/97/44 89/98/45
f 90/99/46 91/100/47 92/101/43
f 93/102/48 17/103/49 88/97/49
f 94/104/48 13/105/49 95/106/48
f 13/107/50 91/108/51 96/109/50
f 97/110/52 26/111/53 22/112/52
f 98/113/54 34/114/54 36/115/55
f 83/116/56 82/117/54 99/118/54
f 41/119/57 34/114/57 100/120/57
f 101/121/57 82/117/57 77/122/58
f 47/123/59 39/124/59 102/125/59
f 103/126/59 76/127/59 71/128/60
f 52/129/61 45/130/62 104/131/62
f 105/132/62 70/133/62 66/134/62
f 57/135/63 51/136/64 2/137/64
f 8/138/64 65/139/64 61/140/65
f 9/141/66 60/142/67 106/143/66
f 1/144/68 58/145/69 107/146/68
f 108/147/70 54/148/70 59/149/70
f 109/150/70 62/151/70 63/152/70
f 110/153/71 49/154/71 55/155/71
f 68/156/72 72/157/71 111/158/71
f 112/159/73 43/160/73 50/161/74
f 74/162/74 78/163/73 113/164/73
f 44/165/75 114/166/75 38/167/75
f 115/168/75 80/169/75 84/170/75
f 32/171/76 116/172/77 33/173/77
f 89/174/77 117/175/77 118/176/77
f 28/177/78 119/178/79 20/179/80
f 117/175/80 88/180/81 17/181/80
f 120/182/1 21/183/1 97/184/1
f 21/185/1 3/186/1 100/187/1
f 97/188/1 21/189/1 98/190/1
f 3/191/1 24/192/1 1/193/1
f 24/194/1 121/195/1 114/196/1
f 114/197/1 121/198/1 116/199/1
f 121/200/1 18/201/1 119/202/1
f 121/198/1 119/203/1 116/199/1
f 98/190/1 21/189/1 100/204/1
f 24/205/1 114/206/1 112/207/1
f 102/208/1 100/209/1 3/3/1
f 24/205/1 112/207/1 110/210/1
f 24/205/1 110/210/1 108/211/1
f 104/212/1 102/208/1 3/3/1
f 2/2/1 104/212/1 3/3/1
f 24/205/1 108/211/1 1/213/1
f 94/214/4 95/215/4 12/216/4
f 12/217/4 7/218/4 81/219/4
f 7/220/4 3/221/4 11/222/4
f 81/223/4 7/224/4 75/225/4
f 3/226/4 21/227/4 35/228/4
f 21/229/4 23/230/4 25/231/4
f 21/229/4 25/231/4 30/232/4
f 92/233/4 94/234/4 12/235/4
f 81/236/4 92/233/4 12/235/4
f 21/229/4 30/232/4 35/237/4
f 75/225/4 7/224/4 69/238/4
f 69/238/4 7/224/4 64/239/4
f 3/10/4 35/240/4 40/241/4
f 3/10/4 40/241/4 46/242/4
f 64/239/4 7/224/4 11/243/4
f 3/10/4 46/242/4 10/11/4
f 21/22/5 120/244/5 22/23/5
f 24/245/6 3/246/6 7/247/6
f 94/104/43 92/101/43 91/100/47
f 92/101/43 83/92/43 90/99/46
f 94/104/48 91/100/49 13/105/49
f 32/248/76 38/249/77 116/250/77
f 116/172/77 119/178/77 33/173/77
f 28/251/78 33/252/81 119/253/79
f 119/178/79 18/254/79 20/179/80
f 27/255/2 19/256/2 121/257/2
f 121/258/2 24/259/2 37/260/2
f 24/261/2 4/262/2 6/263/2
f 37/264/2 24/265/2 42/266/2
f 4/267/2 122/268/2 85/269/2
f 122/270/2 15/271/2 93/272/2
f 122/273/2 93/274/2 87/275/2
f 31/276/2 27/277/2 121/278/2
f 37/264/2 31/276/2 121/278/2
f 122/273/2 87/275/2 85/279/2
f 42/266/2 24/265/2 48/280/2
f 48/280/2 24/265/2 53/281/2
f 4/4/2 85/279/2 79/282/2
f 4/4/2 79/282/2 73/283/2
f 53/281/2 24/265/2 6/6/2
f 4/4/2 73/283/2 5/5/2
f 117/284/3 16/285/3 122/286/3
f 122/286/3 4/287/3 115/288/3
f 4/287/3 7/7/3 9/9/3
f 115/288/3 4/287/3 113/289/3
f 7/7/3 12/290/3 101/291/3
f 12/290/3 14/292/3 96/293/3
f 12/290/3 96/293/3 99/294/3
f 118/295/3 117/284/3 122/286/3
f 115/288/3 118/295/3 122/286/3
f 12/290/3 99/294/3 101/291/3
f 113/289/3 4/287/3 111/296/3
f 111/296/3 4/287/3 109/297/3
f 7/7/3 101/291/3 103/298/3
f 7/7/3 103/298/3 105/299/3
f 109/297/3 4/287/3 9/9/3
f 7/7/3 105/299/3 8/8/3
f 12/13/5 95/300/5 13/14/5
f 15/16/5 122/301/5 16/17/5
f 18/19/5 121/302/5 19/20/5
f 25/28/7 23/303/7 22/29/8
f 20/31/8 19/304/7 27/32/7
f 36/41/9 30/35/9 29/34/9
f 30/35/9 25/28/9 26/30/9
f 33/38/10 28/33/82 31/36/9
f 28/33/82 27/32/9 31/36/9
f 41/46/12 35/40/12 34/39/11
f 35/40/12 30/35/12 36/41/13
f 32/37/15 31/36/12 37/42/12
f 37/42/12 44/49/12 38/43/14
f 47/52/17 40/45/17 39/44/16
f 40/45/17 35/40/17 41/46/18
f 44/49/20 37/42/17 42/47/17
f 42/47/17 50/55/17 43/48/19
f 52/58/21 46/51/21 45/50/21
f 46/51/21 40/45/21 47/52/22
f 50/55/21 42/47/21 48/53/21
f 48/53/21 55/61/21 49/54/21
f 57/64/23 10/57/23 51/56/23
f 10/57/23 46/51/23 52/58/24
f 55/61/25 48/53/23 53/59/23
f 53/59/23 59/67/23 54/60/24
f 106/305/26 11/63/26 56/62/26
f 11/63/26 10/57/26 57/64/26
f 59/67/26 53/59/26 6/65/26
f 6/65/26 107/306/27 58/66/27
f 61/69/28 64/72/28 11/63/28
f 11/63/28 106/305/29 60/68/28
f 107/306/29 6/65/28 62/70/29
f 6/65/28 5/76/28 63/71/28
f 66/74/30 69/78/30 64/72/30
f 64/72/30 61/69/30 65/73/30
f 63/71/30 5/76/30 67/75/30
f 5/76/30 73/82/30 68/77/31
f 71/80/34 75/84/32 69/78/32
f 69/78/32 66/74/32 70/79/33
f 68/77/32 73/82/32 72/81/35
f 73/82/32 79/88/32 74/83/35
f 77/86/36 81/90/36 75/84/36
f 75/84/36 71/80/36 76/85/36
f 74/83/36 79/88/36 78/87/37
f 79/88/36 85/94/36 80/89/38
f 83/92/39 92/101/39 81/90/39
f 81/90/39 77/86/39 82/91/40
f 80/89/39 85/94/39 84/93/41
f 85/94/39 87/96/39 86/95/42
f 89/98/45 86/95/43 87/96/43
f 87/96/43 93/102/43 88/97/44
f 93/102/48 15/307/48 17/103/49
f 96/109/50 14/308/50 13/107/50
f 91/108/51 90/309/52 96/109/50
f 22/112/52 120/310/52 97/110/52
f 97/110/52 29/311/52 26/111/53
f 36/115/55 29/311/54 98/113/54
f 29/311/54 97/110/54 98/113/54
f 96/109/54 90/309/54 99/118/54
f 90/309/54 83/116/56 99/118/54
f 98/113/57 100/120/57 34/114/57
f 100/120/57 39/124/57 41/119/57
f 77/122/58 76/127/83 101/121/57
f 101/121/57 99/118/57 82/117/57
f 100/120/59 102/125/59 39/124/59
f 102/125/59 45/130/59 47/123/59
f 71/128/60 70/133/84 103/126/59
f 103/126/59 101/121/59 76/127/59
f 102/125/62 104/131/62 45/130/62
f 104/131/62 51/136/61 52/129/61
f 66/134/62 65/139/62 105/132/62
f 105/132/62 103/126/62 70/133/62
f 104/131/64 2/137/64 51/136/64
f 2/137/64 56/312/85 57/135/63
f 61/140/65 60/142/86 8/138/64
f 8/138/64 105/132/64 65/139/64
f 106/143/66 56/312/66 1/144/66
f 56/312/66 2/137/66 1/144/66
f 1/144/66 9/141/66 106/143/66
f 9/141/66 8/138/66 60/142/67
f 109/150/68 9/141/68 62/151/69
f 9/141/68 1/144/68 107/146/68
f 1/144/68 108/147/68 58/145/69
f 107/146/68 62/151/69 9/141/68
f 59/149/70 58/145/70 108/147/70
f 108/147/70 110/153/70 54/148/70
f 63/152/70 67/313/70 109/150/70
f 67/313/70 111/158/70 109/150/70
f 55/155/71 54/148/87 110/153/71
f 110/153/71 112/159/71 49/154/71
f 113/164/71 111/158/71 72/157/71
f 111/158/71 67/313/72 68/156/72
f 50/161/74 49/154/74 112/159/73
f 112/159/73 114/166/73 43/160/73
f 115/168/73 113/164/73 78/163/73
f 113/164/73 72/157/74 74/162/74
f 44/165/75 43/160/88 114/166/75
f 114/166/75 116/172/75 38/167/75
f 84/170/75 118/176/75 115/168/75
f 115/168/75 78/163/75 80/169/75
f 118/176/77 84/170/76 86/314/89
f 86/314/89 89/174/77 118/176/77
f 17/181/80 16/315/80 117/175/80
f 117/175/80 89/174/90 88/180/81
o Cubo_Cubo.002
v 0.162231 0.445372 -0.193750
v 0.162231 0.404936 -0.193750
v 0.162231 0.445372 0.194114
v 0.162231 0.404936 0.194114
v -0.162231 0.445372 -0.193750
v -0.162231 0.404936 -0.193750
v -0.162231 0.445372 0.194114
v -0.162231 0.404936 0.194114
vt 0.216624 0.041201
vt 0.132294 0.041201
vt 0.132294 0.246004
vt 0.230094 0.039173
vt 0.131225 0.039173
vt 0.131225 0.289173
vt 0.201958 0.038041
vt 0.134558 0.038041
vt 0.134558 0.288041
vt 0.188151 0.040211
vt 0.135963 0.040211
vt 0.135963 0.358018
vt 0.384301 0.041142
vt 0.134301 0.041142
vt 0.134301 0.291142
vt 0.481250 0.109351
vt 0.231250 0.109351
vt 0.231250 0.359351
vt 0.632912 0.710827
vt 0.565513 0.960827
vt 0.632912 0.960827
vt 0.631507 0.644787
vt 0.579319 0.962595
vt 0.631507 0.962595
vt 0.628949 0.672301
vt 0.522133 0.962148
vt 0.628949 0.962148
vt 0.131735 0.270672
vt 0.195664 0.040888
vt 0.134761 0.039899
vt 0.382004 0.032343
vt 0.630408 0.135156
vt 0.631972 0.036299
vt 0.481250 0.359351
vn 1.0000 0.0000 0.0000
vn 0.0000 0.0000 1.0000
vn -1.0000 0.0000 0.0000
vn 0.0000 0.0000 -1.0000
vn 0.0000 1.0000 0.0000
vn 0.0000 -1.0000 0.0000
usemtl Material.004
s off
f 124/316/91 123/317/91 125/318/91
f 126/319/92 125/320/92 129/321/92
f 130/322/93 129/323/93 127/324/93
f 128/325/94 127/326/94 123/327/94
f 129/328/95 125/329/95 123/330/95
f 126/331/96 130/332/96 128/333/96
f 130/334/93 127/335/93 128/336/93
f 128/337/94 123/338/94 124/339/94
f 129/340/95 123/341/95 127/342/95
f 124/343/91 125/344/91 126/345/91
f 126/346/92 129/347/92 130/348/92
f 126/331/96 128/333/96 124/349/96
