# This file uses centimeters as units for non-parametric coordinates.

mtllib desk.mtl
g default
v -0.500000 0.007292 0.500000
v 0.500000 0.007292 0.500000
v -0.500000 1.007292 0.500000
v 0.500000 1.007292 0.500000
v -0.500000 1.007292 -0.500000
v 0.500000 1.007292 -0.500000
v -0.500000 0.007292 -0.500000
v 0.500000 0.007292 -0.500000
v -1.775951 1.000735 0.582473
v 0.621288 1.000735 0.582473
v -1.775951 1.073586 0.582473
v 0.621288 1.073586 0.582473
v -1.775951 1.073586 -0.582473
v 0.621288 1.073586 -0.582473
v -1.775951 1.000735 -0.582473
v 0.621288 1.000735 -0.582473
v -1.669866 0.023841 0.500000
v -1.579450 0.023841 0.500000
v -1.669866 1.023841 0.500000
v -1.579450 1.023841 0.500000
v -1.669866 1.023841 -0.500000
v -1.579450 1.023841 -0.500000
v -1.669866 0.023841 -0.500000
v -1.579450 0.023841 -0.500000
vt 0.000000 0.000000
vt 1.000000 0.000000
vt 0.000000 1.000000
vt 1.000000 1.000000
vt 0.375000 0.250000
vt 0.625000 0.250000
vt 0.375000 0.500000
vt 0.625000 0.500000
vt 0.000000 -0.010357
vt 1.000000 -0.010357
vt 0.000000 1.010357
vt 1.000000 1.010357
vt 0.000000 -0.010357
vt 1.000000 -0.010357
vt 0.000000 1.010357
vt 1.000000 1.010357
vt 0.000000 0.000000
vt 1.000000 0.000000
vt 0.000000 1.000000
vt 1.000000 1.000000
vt 1.000000 1.013148
vt 0.000000 1.013148
vt 1.000000 -0.013148
vt 0.000000 -0.013148
vt 0.996401 0.972021
vt -0.001722 0.972021
vt 0.996401 0.940296
vt -0.001722 0.940296
vt 1.000000 1.000000
vt 0.000000 1.000000
vt 1.000000 0.000000
vt 0.000000 0.000000
vt 1.000000 0.514104
vt 0.000000 0.514104
vt 1.000000 0.483342
vt 0.000000 0.483342
vt 1.000000 1.029992
vt 0.000000 1.029992
vt 1.000000 0.009279
vt 0.000000 0.009279
vt 1.000000 0.515152
vt -0.000000 0.515152
vt 1.000000 0.484848
vt -0.000000 0.484848
vt 0.000000 0.496357
vt 1.000000 0.496357
vt 0.000000 0.526950
vt 1.000000 0.526950
vt 0.478296 1.000000
vt 0.478296 0.000000
vt 0.521704 1.000000
vt 0.521704 0.000000
vt 0.375000 0.500000
vt 0.375000 0.250000
vt 0.625000 0.500000
vt 0.625000 0.250000
vt 0.484848 1.007565
vt 0.484848 -0.007566
vt 0.515152 1.007565
vt 0.515152 -0.007566
vt 0.000000 1.018730
vt 0.000000 -0.018730
vt 1.000000 1.018730
vt 1.000000 -0.018730
vt 0.000000 1.000000
vt 0.000000 0.000000
vt 1.000000 1.000000
vt 1.000000 0.000000
vt 1.000000 0.000808
vt 1.000000 0.999192
vt 0.000000 0.000808
vt 0.000000 0.999192
vn 0.000000 0.000000 1.000000
vn 0.000000 0.000000 1.000000
vn 0.000000 0.000000 1.000000
vn 0.000000 0.000000 1.000000
vn 0.000000 1.000000 0.000000
vn 0.000000 1.000000 0.000000
vn 0.000000 1.000000 0.000000
vn 0.000000 1.000000 0.000000
vn 0.000000 0.000000 -1.000000
vn 0.000000 0.000000 -1.000000
vn 0.000000 0.000000 -1.000000
vn 0.000000 0.000000 -1.000000
vn 0.000000 -1.000000 0.000000
vn 0.000000 -1.000000 0.000000
vn 0.000000 -1.000000 0.000000
vn 0.000000 -1.000000 0.000000
vn 1.000000 0.000000 0.000000
vn 1.000000 0.000000 0.000000
vn 1.000000 0.000000 0.000000
vn 1.000000 0.000000 0.000000
vn -1.000000 0.000000 0.000000
vn -1.000000 0.000000 0.000000
vn -1.000000 0.000000 0.000000
vn -1.000000 0.000000 0.000000
vn 0.000000 0.000000 1.000000
vn 0.000000 0.000000 1.000000
vn 0.000000 0.000000 1.000000
vn 0.000000 0.000000 1.000000
vn 0.000000 1.000000 0.000000
vn 0.000000 1.000000 0.000000
vn 0.000000 1.000000 0.000000
vn 0.000000 1.000000 0.000000
vn 0.000000 0.000000 -1.000000
vn 0.000000 0.000000 -1.000000
vn 0.000000 0.000000 -1.000000
vn 0.000000 0.000000 -1.000000
vn 0.000000 -1.000000 0.000000
vn 0.000000 -1.000000 0.000000
vn 0.000000 -1.000000 0.000000
vn 0.000000 -1.000000 0.000000
vn 1.000000 0.000000 0.000000
vn 1.000000 0.000000 0.000000
vn 1.000000 0.000000 0.000000
vn 1.000000 0.000000 0.000000
vn -1.000000 0.000000 0.000000
vn -1.000000 0.000000 0.000000
vn -1.000000 0.000000 0.000000
vn -1.000000 0.000000 0.000000
vn 0.000000 0.000000 1.000000
vn 0.000000 0.000000 1.000000
vn 0.000000 0.000000 1.000000
vn 0.000000 0.000000 1.000000
vn 0.000000 1.000000 0.000000
vn 0.000000 1.000000 0.000000
vn 0.000000 1.000000 0.000000
vn 0.000000 1.000000 0.000000
vn 0.000000 0.000000 -1.000000
vn 0.000000 0.000000 -1.000000
vn 0.000000 0.000000 -1.000000
vn 0.000000 0.000000 -1.000000
vn 0.000000 -1.000000 0.000000
vn 0.000000 -1.000000 0.000000
vn 0.000000 -1.000000 0.000000
vn 0.000000 -1.000000 0.000000
vn 1.000000 0.000000 0.000000
vn 1.000000 0.000000 0.000000
vn 1.000000 0.000000 0.000000
vn 1.000000 0.000000 0.000000
vn -1.000000 0.000000 0.000000
vn -1.000000 0.000000 0.000000
vn -1.000000 0.000000 0.000000
vn -1.000000 0.000000 0.000000
s 1
g polySurface18
usemtl lambert3SG
f 3/3/1 1/1/2 4/4/3
f 4/4/3 1/1/2 2/2/4
s 2
usemtl lambert7SG
f 5/7/5 3/5/6 6/8/7
f 6/8/7 3/5/6 4/6/8
s 3
f 7/11/9 5/9/10 8/12/11
f 8/12/11 5/9/10 6/10/12
s 4
f 1/15/13 7/13/14 2/16/15
f 2/16/15 7/13/14 8/14/16
s 5
f 4/19/17 2/17/18 6/20/19
f 6/20/19 2/17/18 8/18/20
s 6
f 5/23/21 7/21/22 3/24/23
f 3/24/23 7/21/22 1/22/24
s 7
f 12/25/25 11/26/26 10/27/27
f 10/27/27 11/26/26 9/28/28
s 8
f 14/29/29 13/30/30 12/31/31
f 12/31/31 13/30/30 11/32/32
s 9
f 16/33/33 15/34/34 14/35/35
f 14/35/35 15/34/34 13/36/36
s 10
f 10/37/37 9/38/38 16/39/39
f 16/39/39 9/38/38 15/40/40
s 11
f 14/41/41 12/42/42 16/43/43
f 16/43/43 12/42/42 10/44/44
s 12
f 11/45/45 13/46/46 9/47/47
f 9/47/47 13/46/46 15/48/48
s 13
f 19/49/49 17/50/50 20/51/51
f 20/51/51 17/50/50 18/52/52
s 14
f 21/53/53 19/54/54 22/55/55
f 22/55/55 19/54/54 20/56/56
s 15
f 23/57/57 21/58/58 24/59/59
f 24/59/59 21/58/58 22/60/60
s 16
f 17/61/61 23/62/62 18/63/63
f 18/63/63 23/62/62 24/64/64
s 17
f 20/65/65 18/66/66 22/67/67
f 22/67/67 18/66/66 24/68/68
s 18
f 21/69/69 23/70/70 19/71/71
f 19/71/71 23/70/70 17/72/72
