# Blender v2.93.5 OBJ File: ''
# www.blender.org
mtllib marco_puerta.mtl
o marco_Cubo.002
v -1.352700 1.786088 0.113560
v -1.352700 -1.737606 -0.141069
v -1.352700 -1.737606 0.113559
v -1.352700 1.786088 -0.141070
v 1.279273 1.786088 -0.141070
v -1.167577 1.627034 -0.141070
v 1.094150 -1.602006 -0.141069
v 1.279273 -1.737606 -0.141069
v 1.279273 -1.737606 0.113559
v 1.279273 1.786088 0.113560
v 1.094150 1.627034 0.113560
v 1.094150 -1.602006 0.113559
v -1.167577 -1.602006 0.113559
v -1.167577 -1.602006 -0.141069
v -1.167577 1.627034 0.113560
v 1.094150 1.627034 -0.141070
vt 0.501083 0.162979
vt 0.420791 0.243271
vt 0.420791 0.162979
vt 0.600336 0.638180
vt 0.378184 0.637690
vt 0.599015 0.633113
vt 0.377521 0.250000
vt 0.380146 0.482416
vt 0.377521 0.500000
vt 0.515625 0.199219
vt 0.421875 0.316406
vt 0.453125 0.226563
vt 0.599626 0.638373
vt 0.378583 0.638729
vt 0.597829 0.632340
vt 0.480469 0.378906
vt 0.490089 0.146490
vt 0.490089 0.361322
vt 0.375000 0.500000
vt 0.125000 0.750000
vt 0.125000 0.500000
vt 0.507493 0.091554
vt 0.468430 0.337648
vt 0.468430 0.087648
vt 0.419866 0.060988
vt 0.572210 0.067067
vt 0.419866 0.067067
vt 0.392547 0.639970
vt 0.585208 0.633163
vt 0.392547 0.633163
vt 0.590002 0.638644
vt 0.395614 0.632131
vt 0.395737 0.639310
vt 0.446429 0.632178
vt 0.538806 0.637664
vt 0.538806 0.632178
vt 0.501083 0.243271
vt 0.598882 0.391547
vt 0.601036 0.392601
vt 0.378736 0.396668
vt 0.382518 0.629882
vt 0.380410 0.404335
vt 0.380146 0.267584
vt 0.492188 0.351563
vt 0.599094 0.390366
vt 0.598655 0.390877
vt 0.377593 0.395051
vt 0.380574 0.633885
vt 0.380129 0.403112
vt 0.480469 0.128906
vt 0.375000 0.750000
vt 0.507493 0.341554
vt 0.572210 0.060988
vt 0.585208 0.639970
vt 0.589879 0.631464
vt 0.446429 0.637664
vn -1.0000 -0.0000 0.0000
vn -0.0000 -0.0000 -1.0000
vn 1.0000 0.0000 0.0000
vn -0.0000 -0.0000 1.0000
vn 0.0000 -1.0000 0.0000
vn 0.0000 1.0000 0.0000
usemtl Material.001
s 1
f 1/1/1 2/2/1 3/3/1
f 4/4/2 5/5/2 6/6/2
f 2/7/2 7/8/2 8/9/2
f 5/10/3 9/11/3 8/12/3
f 10/13/4 1/14/4 11/15/4
f 3/16/4 12/17/4 13/18/4
f 8/19/5 3/20/5 2/21/5
f 4/22/6 10/23/6 5/24/6
f 14/25/3 15/26/3 13/27/3
f 12/28/1 16/29/1 7/30/1
f 7/31/6 13/32/6 12/33/6
f 16/34/5 15/35/5 6/36/5
f 1/1/1 4/37/1 2/2/1
f 14/38/2 2/39/2 6/6/2
f 2/39/2 4/4/2 6/6/2
f 5/5/2 8/40/2 16/41/2
f 8/40/2 7/42/2 16/41/2
f 5/5/2 16/41/2 6/6/2
f 2/7/2 14/43/2 7/8/2
f 5/10/3 10/44/3 9/11/3
f 11/15/4 12/45/4 9/46/4
f 1/14/4 3/47/4 15/48/4
f 3/47/4 13/49/4 15/48/4
f 11/15/4 9/46/4 10/13/4
f 1/14/4 15/48/4 11/15/4
f 3/16/4 9/50/4 12/17/4
f 8/19/5 9/51/5 3/20/5
f 4/22/6 1/52/6 10/23/6
f 14/25/3 6/53/3 15/26/3
f 12/28/1 11/54/1 16/29/1
f 7/31/6 14/55/6 13/32/6
f 16/34/5 11/56/5 15/35/5
