# Blender v2.93.5 OBJ File: ''
# www.blender.org
mtllib puerta.mtl
o puerta_Cubo.005
v -1.191301 1.662346 0.109140
v -1.191301 -1.623197 -0.141761
v -1.191301 -1.623197 0.109141
v -1.191301 1.662346 -0.141763
v 1.110003 -1.623197 -0.141761
v 1.110003 1.662346 -0.141763
v 1.110003 -1.623197 0.109141
v 1.110003 1.662346 0.109140
vt 0.134284 0.246094
vt 0.037591 0.496094
vt 0.037591 0.246094
vt 0.178470 0.956565
vt 0.852875 0.046055
vt 0.174639 0.042327
vt 0.120666 0.373047
vt 0.086365 0.623047
vt 0.086365 0.373047
vt 0.841115 0.954997
vt 0.181540 0.049816
vt 0.838501 0.053121
vt 0.139283 0.501953
vt 0.036498 0.751953
vt 0.036498 0.501953
vt 0.169383 0.382812
vt 0.014211 0.632812
vt 0.014211 0.382812
vt 0.134284 0.496094
vt 0.848894 0.960294
vt 0.120666 0.623047
vt 0.174388 0.959504
vt 0.139283 0.751953
vt 0.169383 0.632812
vn -1.0000 -0.0000 0.0000
vn 0.0000 -0.0000 -1.0000
vn 1.0000 -0.0000 0.0000
vn 0.0000 0.0000 1.0000
vn 0.0000 -1.0000 0.0000
vn 0.0000 1.0000 0.0000
usemtl Material.033
s 1
f 1/1/1 2/2/1 3/3/1
f 4/4/2 5/5/2 2/6/2
f 6/7/3 7/8/3 5/9/3
f 8/10/4 3/11/4 7/12/4
f 5/13/5 3/14/5 2/15/5
f 4/16/6 8/17/6 6/18/6
f 1/1/1 4/19/1 2/2/1
f 4/4/2 6/20/2 5/5/2
f 6/7/3 8/21/3 7/8/3
f 8/10/4 1/22/4 3/11/4
f 5/13/5 7/23/5 3/14/5
f 4/16/6 1/24/6 8/17/6
