# Blender v2.93.5 OBJ File: ''
# www.blender.org
mtllib regaloCaja.mtl
o Cubo.017_Cubo.027
v -0.882831 -0.562441 -0.872596
v -0.882831 0.685335 0.845158
v -0.882831 -0.562440 0.845158
v 0.830051 -0.562441 -0.872596
v -0.882831 0.685334 -0.872596
v 0.830051 -0.562440 0.845158
v 0.830051 0.685334 -0.872596
v 0.830051 0.685335 0.845158
v -1.026390 0.685335 0.992514
v -1.026390 -0.685336 -1.007486
v -1.026390 -0.685335 0.992514
v -1.026390 0.685334 -1.007486
v 0.973610 -0.685336 -1.007486
v 0.973610 0.685334 -1.007486
v 0.973610 -0.685335 0.992514
v 0.973610 0.685335 0.992514
vt 0.377461 0.540372
vt 0.544389 0.290372
vt 0.377461 0.290372
vt 0.375000 0.500000
vt 0.541928 0.250000
vt 0.375000 0.250000
vt 0.375000 0.750000
vt 0.541928 0.500000
vt 0.421755 0.739157
vt 0.588683 0.489157
vt 0.421755 0.489157
vt 0.125000 0.750000
vt 0.125000 0.500000
vt 0.005425 0.996074
vt 0.989653 0.006925
vt 0.989653 0.996074
vt 0.990728 0.004851
vt 0.006811 0.996149
vt 0.006811 0.004851
vt 0.996359 0.004524
vt 0.007547 0.993522
vt 0.007547 0.004524
vt 0.992679 0.008283
vt 0.007321 0.993640
vt 0.007321 0.008283
vt 0.375000 0.500000
vt 0.125000 0.750000
vt 0.125000 0.500000
vt 0.642945 0.731580
vt 0.875000 0.750000
vt 0.625000 0.750000
vt 0.857055 0.516861
vt 0.625000 0.500000
vt 0.875000 0.500000
vt 0.544389 0.540372
vt 0.541928 0.750000
vt 0.588683 0.739157
vt 0.005425 0.006925
vt 0.990728 0.996149
vt 0.996359 0.993522
vt 0.992679 0.993640
vt 0.375000 0.750000
vt 0.642945 0.516861
vt 0.857055 0.731580
vn 1.0000 -0.0000 0.0000
vn 0.0000 0.0000 1.0000
vn -1.0000 0.0000 0.0000
vn 0.0000 -0.0000 -1.0000
vn 0.0000 1.0000 -0.0000
vn 0.0000 -1.0000 0.0000
usemtl Material.014
s 1
f 1/1/1 2/2/1 3/3/1
f 4/4/2 5/5/2 1/6/2
f 6/7/3 7/8/3 4/4/3
f 3/9/4 8/10/4 6/11/4
f 3/12/5 4/4/5 1/13/5
f 9/14/3 10/15/3 11/16/3
f 12/17/4 13/18/4 10/19/4
f 14/20/1 15/21/1 13/22/1
f 16/23/2 11/24/2 15/25/2
f 13/26/6 11/27/6 10/28/6
f 8/29/5 9/30/5 16/31/5
f 5/32/5 14/33/5 12/34/5
f 1/1/1 5/35/1 2/2/1
f 4/4/2 7/8/2 5/5/2
f 6/7/3 8/36/3 7/8/3
f 3/9/4 2/37/4 8/10/4
f 3/12/5 6/7/5 4/4/5
f 9/14/3 12/38/3 10/15/3
f 12/17/4 14/39/4 13/18/4
f 14/20/1 16/40/1 15/21/1
f 16/23/2 9/41/2 11/24/2
f 13/26/6 15/42/6 11/27/6
f 16/31/5 14/33/5 8/29/5
f 14/33/5 7/43/5 8/29/5
f 8/29/5 2/44/5 9/30/5
f 12/34/5 9/30/5 2/44/5
f 5/32/5 7/43/5 14/33/5
f 12/34/5 2/44/5 5/32/5
o Cubo.016_Cubo.026
v 0.104991 0.705719 1.018271
v -0.144419 -0.705719 1.018271
v 0.104991 -0.705719 1.018271
v -0.144419 -0.554046 0.845080
v -0.144419 -0.554047 -0.872517
v -0.144419 -0.705720 -1.036129
v -0.144419 0.705718 -1.036130
v 0.104991 -0.705720 -1.036129
v 0.104991 -0.554046 0.845080
v -0.144419 0.705719 0.845080
v -0.144419 0.705719 1.018271
v 0.104991 0.705718 -1.036130
v -0.144419 0.705718 -0.872517
v 0.104991 0.705718 -0.872517
v 0.104991 -0.554047 -0.872517
v 0.104991 0.705719 0.845080
vt 0.625000 0.000000
vt 0.375000 0.250000
vt 0.375000 0.000000
vt 0.401865 0.271076
vt 0.401865 0.480090
vt 0.375000 0.500000
vt 0.625000 0.500000
vt 0.375000 0.750000
vt 0.375000 1.000000
vt 0.401865 0.978924
vt 0.125000 0.750000
vt 0.125000 0.500000
vt 0.875000 0.750000
vt 0.853924 0.500000
vt 0.875000 0.500000
vt 0.625000 0.750000
vt 0.644910 0.500000
vt 0.644910 0.750000
vt 0.375000 0.500000
vt 0.538664 0.250000
vt 0.375000 0.500000
vt 0.375000 1.000000
vt 0.538664 0.750000
vt 0.538664 0.750000
vt 0.225347 0.500000
vt 0.276600 0.750000
vt 0.276600 0.500000
vt 0.625000 0.250000
vt 0.625000 0.480090
vt 0.625000 0.271076
vt 0.625000 0.978924
vt 0.625000 1.000000
vt 0.401865 0.769910
vt 0.625000 0.769910
vt 0.853924 0.750000
vt 0.538664 0.250000
vt 0.375000 1.000000
vt 0.225347 0.750000
vn 0.0000 0.0000 1.0000
vn -1.0000 -0.0000 0.0000
vn 0.0000 -0.0000 -1.0000
vn 1.0000 0.0000 0.0000
vn 0.0000 -1.0000 0.0000
vn 0.0000 1.0000 -0.0000
usemtl Material.013
s 1
f 17/45/7 18/46/7 19/47/7
f 20/48/8 21/49/8 22/50/8
f 23/51/9 24/52/9 22/50/9
f 19/53/10 24/52/10 25/54/10
f 22/50/11 19/55/11 18/56/11
f 17/57/12 26/58/12 27/59/12
f 28/60/12 29/61/12 30/62/12
f 31/63/7 29/64/7 21/65/7
f 25/66/9 26/67/9 32/68/9
f 21/69/12 25/70/12 31/71/12
f 17/45/7 27/72/7 18/46/7
f 21/49/8 29/73/8 23/51/8
f 18/46/8 27/72/8 20/48/8
f 27/72/8 26/74/8 20/48/8
f 21/49/8 23/51/8 22/50/8
f 18/46/8 20/48/8 22/50/8
f 23/51/9 28/60/9 24/52/9
f 32/75/10 17/76/10 25/54/10
f 17/76/10 19/53/10 25/54/10
f 24/52/10 28/60/10 31/77/10
f 28/60/10 30/78/10 31/77/10
f 24/52/10 31/77/10 25/54/10
f 22/50/11 24/52/11 19/55/11
f 17/57/12 32/79/12 26/58/12
f 28/60/12 23/51/12 29/61/12
f 31/63/7 30/80/7 29/64/7
f 25/66/9 20/81/9 26/67/9
f 21/69/12 20/82/12 25/70/12
o Cubo.009_Cubo.025
v -1.057003 0.705718 0.115776
v -1.057003 -0.705720 -0.133634
v -1.057003 -0.705720 0.115776
v 0.997576 -0.705720 -0.133634
v 0.820051 -0.554047 -0.133634
v 0.997576 0.705718 -0.133634
v 0.997576 -0.705720 0.115776
v 0.820051 -0.554047 0.115776
v -0.892825 -0.554047 0.115776
v -0.892825 0.705718 -0.133634
v -1.057003 0.705718 -0.133634
v 0.997576 0.705718 0.115776
v 0.820051 0.705718 -0.133634
v 0.820051 0.705718 0.115776
v -0.892825 0.705718 0.115776
v -0.892825 -0.554047 -0.133634
vt 0.625000 0.000000
vt 0.375000 0.250000
vt 0.375000 0.000000
vt 0.375000 0.500000
vt 0.401865 0.478399
vt 0.625000 0.500000
vt 0.375000 0.750000
vt 0.401865 0.771601
vt 0.401865 0.980023
vt 0.375000 1.000000
vt 0.125000 0.750000
vt 0.125000 0.500000
vt 0.875000 0.750000
vt 0.855023 0.500000
vt 0.875000 0.500000
vt 0.625000 0.750000
vt 0.646601 0.500000
vt 0.646601 0.750000
vt 0.375000 0.106153
vt 0.538664 0.142452
vt 0.538664 0.106153
vt 0.375000 0.643847
vt 0.538664 0.607548
vt 0.375000 0.607548
vt 0.125000 0.643847
vt 0.625000 0.250000
vt 0.625000 0.478399
vt 0.401865 0.269977
vt 0.625000 0.269977
vt 0.625000 0.980023
vt 0.625000 1.000000
vt 0.625000 0.771601
vt 0.855023 0.750000
vt 0.375000 0.142452
vt 0.538664 0.643847
vt 0.125000 0.607548
vn -1.0000 -0.0000 0.0000
vn -0.0000 -0.0000 -1.0000
vn 1.0000 0.0000 0.0000
vn -0.0000 0.0000 1.0000
vn 0.0000 -1.0000 0.0000
vn 0.0000 1.0000 0.0000
usemtl Material.012
s 1
f 33/83/13 34/84/13 35/85/13
f 36/86/14 34/84/14 37/87/14
f 38/88/15 39/89/15 36/86/15
f 40/90/16 41/91/16 35/92/16
f 36/86/17 35/93/17 34/94/17
f 33/95/18 42/96/18 43/97/18
f 44/98/18 45/99/18 46/100/18
f 41/101/15 42/102/15 47/103/15
f 40/104/13 45/105/13 37/106/13
f 37/106/18 41/107/18 40/104/18
f 33/83/13 43/108/13 34/84/13
f 37/87/14 45/109/14 38/88/14
f 34/84/14 43/108/14 48/110/14
f 43/108/14 42/111/14 48/110/14
f 37/87/14 38/88/14 36/86/14
f 34/84/14 48/110/14 37/87/14
f 38/88/15 44/98/15 39/89/15
f 47/112/16 33/113/16 41/91/16
f 33/113/16 35/92/16 41/91/16
f 39/89/16 44/98/16 40/90/16
f 44/98/16 46/114/16 40/90/16
f 39/89/16 40/90/16 35/92/16
f 36/86/17 39/89/17 35/93/17
f 33/95/18 47/115/18 42/96/18
f 44/98/18 38/88/18 45/99/18
f 41/101/15 48/116/15 42/102/15
f 40/104/13 46/117/13 45/105/13
f 37/106/18 48/118/18 41/107/18
