# Blender v2.93.5 OBJ File: 'timmy.blend'
# www.blender.org
mtllib timmy.mtl
o Cubo.001_Cubo.002
v 0.000548 0.328153 -0.298050
v 0.000548 0.990421 -0.298050
v 0.000548 0.328153 0.364218
v 0.000548 0.990421 0.364218
v -0.000548 0.328153 -0.298050
v -0.000548 0.990421 -0.298050
v -0.000548 0.328153 0.364218
v -0.000548 0.990421 0.364218
vt 0.962179 0.803047
vt 0.502820 0.364026
vt 0.963083 0.364931
vt 0.444353 0.482188
vt 0.458081 0.516355
vt 0.445018 0.516451
vt 0.484573 0.805128
vt 0.026838 0.382658
vt 0.481667 0.376652
vt 0.621127 0.302096
vt 0.425082 0.074342
vt 0.618167 0.075031
vt 0.632333 0.103150
vt 0.382333 0.353150
vt 0.382333 0.103150
vt 0.564663 0.324296
vt 0.391353 0.163876
vt 0.566026 0.165117
vt 0.501915 0.802143
vt 0.457416 0.482093
vt 0.029744 0.811134
vt 0.428041 0.301407
vt 0.632333 0.353150
vt 0.389990 0.323056
vn 1.0000 0.0000 0.0000
vn 0.0000 0.0000 1.0000
vn -1.0000 0.0000 0.0000
vn 0.0000 0.0000 -1.0000
vn 0.0000 -1.0000 0.0000
vn 0.0000 1.0000 0.0000
g Cubo.001_Cubo.002_Material.001
usemtl Material.001
s off
f 2/1/1 3/2/1 1/3/1
f 4/4/2 7/5/2 3/6/2
f 8/7/3 5/8/3 7/9/3
f 6/10/4 1/11/4 5/12/4
f 7/13/5 1/14/5 3/15/5
f 4/16/6 6/17/6 8/18/6
f 2/1/1 4/19/1 3/2/1
f 4/4/2 8/20/2 7/5/2
f 8/7/3 6/21/3 5/8/3
f 6/10/4 2/22/4 1/11/4
f 7/13/5 5/23/5 1/14/5
f 4/16/6 2/24/6 6/17/6
